<?xml version="1.0" encoding="UTF-8" standalone="no"?>
<!-- Created with Inkscape (http://www.inkscape.org/) -->

<svg
   width="276.8468mm"
   height="182.22717mm"
   viewBox="0 0 276.8468 182.22717"
   version="1.1"
   id="svg5"
   sodipodi:docname="port-mirroring.svg"
   inkscape:version="1.1.1 (3bf5ae0d25, 2021-09-20)"
   xmlns:inkscape="http://www.inkscape.org/namespaces/inkscape"
   xmlns:sodipodi="http://sodipodi.sourceforge.net/DTD/sodipodi-0.dtd"
   xmlns="http://www.w3.org/2000/svg"
   xmlns:svg="http://www.w3.org/2000/svg">
  <sodipodi:namedview
     id="namedview7"
     pagecolor="#ffffff"
     bordercolor="#666666"
     borderopacity="1.0"
     inkscape:pageshadow="2"
     inkscape:pageopacity="0.0"
     inkscape:pagecheckerboard="0"
     inkscape:document-units="mm"
     showgrid="false"
     inkscape:zoom="0.50867705"
     inkscape:cx="508.18098"
     inkscape:cy="298.81435"
     inkscape:window-width="1366"
     inkscape:window-height="715"
     inkscape:window-x="0"
     inkscape:window-y="0"
     inkscape:window-maximized="1"
     inkscape:current-layer="layer1" />
  <defs
     id="defs2" />
  <g
     inkscape:label="Layer 1"
     inkscape:groupmode="layer"
     id="layer1"
     transform="translate(-12.618856,-13.11189)">
    <g
       id="g1060"
       transform="matrix(0.1971611,0,0,0.1971611,235.96154,140.8374)">
      <g
         id="g1032">
        <path
           fill="#5cb0ff"
           d="M 175.9961,156 C 184.8203,156 192,148.8242 192,140.0039 V 23.9961 C 192,15.1758 184.8203,8 175.9961,8 H 24.0039 C 15.1797,8 8,15.1758 8,23.9961 V 140.0039 C 8,148.8242 15.1797,156 24.0039,156 H 80 124 Z M 68.8281,32.8281 34.7695,66.8867 c -0.7812,0.7812 -1.8047,1.1719 -2.8281,1.1719 -1.0234,0 -2.0469,-0.3906 -2.8281,-1.1719 -1.5625,-1.5625 -1.5625,-4.0938 0,-5.6562 L 63.1719,27.1719 c 1.5625,-1.5625 4.0938,-1.5625 5.6562,0 1.5624,1.5625 1.5625,4.0937 0,5.6562 z"
           id="path1016" />
        <rect
           x="112"
           y="192"
           fill="#d0e8ff"
           width="60"
           height="4"
           id="rect1018" />
        <path
           fill="#d0e8ff"
           d="m 8,180 v 14 c 0,7.7188 6.2695,14 13.9766,14 h 156.0469 c 7.707,0 13.9766,-6.2812 13.9766,-14 v -14 h -68 H 80 Z m 20,18 c 0,2.209 -1.791,4 -4,4 -2.209,0 -4,-1.791 -4,-4 v -8 c 0,-2.209 1.791,-4 4,-4 2.209,0 4,1.791 4,4 z m 76,-14 h 76 v 20 h -76 z"
           id="path1020" />
        <rect
           x="88"
           y="164"
           fill="#d0e8ff"
           width="28"
           height="8"
           id="rect1022" />
        <path
           fill="#1c71da"
           d="M 175.9961,164 C 189.2324,164 200,153.2363 200,140.0039 V 23.9961 C 200,10.7637 189.2324,0 175.9961,0 H 24.0039 C 10.7676,0 0,10.7637 0,23.9961 V 140.0039 C 0,153.2363 10.7676,164 24.0039,164 H 80 v 8 H 0 v 22 c 0,12.1309 9.8594,22 21.9766,22 H 178.0235 C 190.1406,216 200,206.1309 200,194 v -22 h -76 v -8 z M 24.0039,156 C 15.1797,156 8,148.8242 8,140.0039 V 23.9961 C 8,15.1758 15.1797,8 24.0039,8 H 175.9961 C 184.8203,8 192,15.1758 192,23.9961 V 140.0039 C 192,148.8242 184.8203,156 175.9961,156 H 124 80 Z M 192,180 v 14 c 0,7.7188 -6.2695,14 -13.9766,14 H 21.9766 C 14.2695,208 8,201.7188 8,194 v -14 h 72 44 z m -76,-8 H 88 v -8 h 28 z"
           id="path1024" />
        <path
           fill="#1c71da"
           d="m 180,184 h -76 v 20 h 76 z m -8,12 h -60 v -4 h 60 z"
           id="path1026" />
        <path
           fill="#1c71da"
           d="m 24,186 c -2.209,0 -4,1.791 -4,4 v 8 c 0,2.209 1.791,4 4,4 2.209,0 4,-1.791 4,-4 v -8 c 0,-2.209 -1.791,-4 -4,-4 z"
           id="path1028" />
        <path
           fill="#ffffff"
           d="M 63.1719,27.1719 29.1133,61.2305 c -1.5625,1.5625 -1.5625,4.0938 0,5.6562 0.7812,0.7812 1.8047,1.1719 2.8281,1.1719 1.0234,0 2.0469,-0.3906 2.8281,-1.1719 L 68.8281,32.8281 c 1.5625,-1.5625 1.5625,-4.0938 0,-5.6562 -1.5625,-1.5624 -4.0937,-1.5625 -5.6562,0 z"
           id="path1030" />
      </g>
      <path
         fill="#ff5d5d"
         d="m 32.2524,143.8237 c -1.0239,0 -2.0474,-0.3906 -2.8286,-1.1714 -1.562,-1.5625 -1.562,-4.0947 0,-5.6572 L 43.5659,122.853 c 1.5625,-1.5615 4.0947,-1.5615 5.6572,0 1.562,1.5625 1.562,4.0947 0,5.6572 L 35.081,142.6523 c -0.7812,0.7808 -1.8046,1.1714 -2.8286,1.1714 z"
         id="path1034" />
      <path
         fill="#ff5d5d"
         d="m 46.3945,143.8223 c -1.0239,0 -2.0474,-0.3906 -2.8286,-1.1714 L 29.4238,128.5083 c -1.562,-1.5625 -1.562,-4.0952 0,-5.6572 1.563,-1.5615 4.0952,-1.5605 5.6572,0 l 14.1421,14.1426 c 1.562,1.5625 1.562,4.0952 0,5.6572 -0.7812,0.7807 -1.8051,1.1714 -2.8286,1.1714 z"
         id="path1036" />
      <path
         fill="#00d40b"
         d="m 102.2524,79.8237 c -7.7197,0 -14,-6.2803 -14,-14 0,-7.7197 6.2803,-14 14,-14 7.7197,0 14,6.2803 14,14 0,7.7197 -6.2802,14 -14,14 z m 0,-20 c -3.3086,0 -6,2.6914 -6,6 0,3.3086 2.6914,6 6,6 3.3086,0 6,-2.6914 6,-6 0,-3.3086 -2.6914,-6 -6,-6 z"
         id="path1038" />
      <path
         fill="#ffc504"
         d="m 171.5659,102.4492 c -1.0239,0 -2.0474,-0.3906 -2.8286,-1.1714 L 157.4238,89.9643 c -1.562,-1.5625 -1.562,-4.0947 0,-5.6572 l 11.3135,-11.3135 c 1.5625,-1.5615 4.0952,-1.5615 5.6567,0 l 11.314,11.3135 c 0.7505,0.7505 1.1719,1.7676 1.1719,2.8286 0,1.061 -0.4214,2.0781 -1.1719,2.8286 l -11.314,11.3135 c -0.7807,0.7808 -1.8046,1.1714 -2.8281,1.1714 z m -5.6567,-15.3135 5.6567,5.6567 5.6572,-5.6567 -5.6572,-5.6567 z"
         id="path1040" />
    </g>
    <g
       id="g1414"
       transform="matrix(0.12714926,0,0,0.12714926,14.477331,129.58059)">
      <circle
         style="fill:#88c5cc"
         cx="256"
         cy="256"
         r="256"
         id="circle1223" />
      <path
         style="fill:#1e2c33"
         d="M 44,112.476 V 369.272 C 44,375.196 48.804,380 54.732,380 h 122.54 c 5.92,0 10.732,-4.8 10.732,-10.728 V 46.724 c 0,-5.924 -4.804,-10.728 -10.732,-10.728 H 125.104 C 92.792,55.268 65.068,81.42 44,112.476 Z"
         id="path1225" />
      <path
         style="fill:#f5f5f5"
         d="M 52,101.38 V 368 H 180 V 44 H 112.476 C 89.32,59.708 68.892,79.128 52,101.38 Z"
         id="path1227" />
      <g
         id="g1247">
        <path
           style="fill:#1e2c33"
           d="M 74.008,76 H 168 V 56 H 96.288 c -7.804,6.244 -15.256,12.904 -22.28,20 z"
           id="path1229" />
        <rect
           x="68"
           y="112"
           style="fill:#1e2c33"
           width="96"
           height="12"
           id="rect1231" />
        <rect
           x="68"
           y="140"
           style="fill:#1e2c33"
           width="96"
           height="8"
           id="rect1233" />
        <rect
           x="68"
           y="164"
           style="fill:#1e2c33"
           width="96"
           height="8"
           id="rect1235" />
        <rect
           x="68"
           y="188"
           style="fill:#1e2c33"
           width="96"
           height="8"
           id="rect1237" />
        <rect
           x="68"
           y="212"
           style="fill:#1e2c33"
           width="96"
           height="8"
           id="rect1239" />
        <rect
           x="68"
           y="240"
           style="fill:#1e2c33"
           width="96"
           height="8"
           id="rect1241" />
        <rect
           x="68"
           y="100"
           style="fill:#1e2c33"
           width="96"
           height="12"
           id="rect1243" />
        <circle
           style="fill:#1e2c33"
           cx="116"
           cy="292"
           r="8"
           id="circle1245" />
      </g>
      <path
         style="fill:#f5f5f5"
         d="m 156,72 h -4 c -2.212,0 -4,-1.788 -4,-4 0,-2.212 1.788,-4 4,-4 h 4 c 2.212,0 4,1.788 4,4 0,2.212 -1.788,4 -4,4 z"
         id="path1249" />
      <path
         style="fill:#cc803d"
         d="m 32.036,380 c 18.448,33.252 44.088,61.928 74.816,84 h 298.296 c 30.728,-22.072 56.368,-50.752 74.816,-84 z"
         id="path1251" />
      <g
         id="g1301">
        <path
           style="fill:#99602e"
           d="m 102.956,430.856 c 7.988,-1.656 13.264,-7.516 19.86,-11.904 8.776,-5.844 18.956,-5.688 26.724,-13.576 6.504,-6.596 7.78,-16.224 6.264,-25.384 h -7.42 c 1.948,10.732 -1.896,21.068 -13.968,26.084 -5.084,2.112 -10.264,3.516 -15.232,5.96 -6.652,3.276 -10.468,9.504 -18.14,11.096 -4.512,0.948 -2.816,8.708 1.912,7.724 z"
           id="path1253" />
        <path
           style="fill:#99602e"
           d="M 109.404,393.676 C 103.72,392.352 99.616,385.236 96.08,380 h -7.996 c -0.06,0.968 0.184,1.968 0.872,2.828 6.656,8.324 13.416,21.696 26.204,18.584 8.812,-2.14 14.736,-12.396 14.588,-21.416 h -6.916 c 0.652,6.672 -7,15.172 -13.428,13.68 z"
           id="path1255" />
        <path
           style="fill:#99602e"
           d="m 175.764,430.512 c 7.072,-9.008 13.064,-18.028 16.704,-28.948 1.576,-4.712 -5.312,-7.008 -6.936,-2.124 -6.276,18.82 -22.492,31.304 -30.384,49.228 -2.18,4.952 -2.836,10.132 -2.628,15.34 h 8.476 c 0.396,-11.652 5.424,-21.58 14.768,-33.496 z"
           id="path1257" />
        <path
           style="fill:#99602e"
           d="m 239.22,437.188 c -5.408,-17.452 -2.7,-37.264 -0.5,-55.124 0.092,-0.76 -0.048,-1.432 -0.272,-2.064 h -6.672 c -2.384,19.28 -5.36,40.384 0.508,59.312 1.52,4.932 8.404,2.608 6.936,-2.124 z"
           id="path1259" />
        <path
           style="fill:#99602e"
           d="m 111.788,464 c -2.308,-8.84 -5.632,-17.196 -12.748,-23.828 -3.736,-3.484 -8.508,2.468 -5.088,5.656 4.836,4.512 7.72,10 9.724,15.916 1.044,0.772 2.12,1.5 3.172,2.256 z"
           id="path1261" />
        <path
           style="fill:#99602e"
           d="m 71.124,380 c -2.104,12.908 4.124,24.38 11.828,34.828 3.032,4.108 7.82,-1.96 5.088,-5.656 C 81.6,400.428 76.232,390.92 78.568,380 Z"
           id="path1263" />
        <path
           style="fill:#99602e"
           d="m 250.352,421.252 c 0.264,-5.792 -0.712,-12.416 -2.992,-17.764 -0.796,-1.868 -3.28,-2.508 -4.924,-1.428 -1.876,1.22 -2.104,3.568 -1.292,5.468 1.72,4.032 2.212,9.392 2.008,13.736 -0.236,5.088 6.964,5.048 7.2,-0.012 z"
           id="path1265" />
        <path
           style="fill:#99602e"
           d="m 59.94,380 h -8.324 c -3.472,7.964 -5.132,15.408 -5.072,23.108 3.168,4.5 6.46,8.9 9.908,13.172 C 53.404,405.468 53.66,393.72 59.94,380 Z"
           id="path1267" />
        <path
           style="fill:#99602e"
           d="m 210.6,386 c -0.46,-5.012 -7.668,-5.084 -7.204,0 2.48,27.056 -14.884,39.92 -22.616,63.312 -1.288,3.888 -1.852,9.38 -1.28,14.688 h 6.044 c -1.348,-12.228 12.724,-31.28 16.932,-38.092 7.644,-12.368 9.432,-25.656 8.124,-39.908 z"
           id="path1269" />
        <path
           style="fill:#99602e"
           d="m 237.212,464 c -5.188,-12.572 -10.976,-25.5 -12.336,-38.852 -0.252,-2.532 -0.416,-5.124 -0.548,-7.744 0.1,-0.804 0.216,-1.592 0.272,-2.412 0.06,-0.86 -0.148,-1.516 -0.448,-2.084 -0.276,-10.916 0.24,-22.244 0.404,-32.916 h -7.18 c -0.136,11.56 -0.36,23.464 0,35.196 -1.376,18.284 -15.096,33.424 -23.852,48.804 h 8.568 c 5.62,-9.376 12.204,-18.588 16.824,-28.528 1.644,9.692 6.04,19.252 10.188,28.528 z"
           id="path1271" />
        <path
           style="fill:#99602e"
           d="m 165.328,411.908 c 11.24,-7.328 15.32,-19.344 16.728,-31.908 h -7.568 c -4.832,23.72 -27.872,32.492 -42.94,50.652 -9.012,10.86 -5.4,21.844 -1.856,33.348 h 7.324 c -2.752,-7.988 -5.952,-16.364 -2.584,-24.252 5.148,-12.056 20.556,-21.1 30.896,-27.84 z"
           id="path1273" />
        <path
           style="fill:#99602e"
           d="m 215.64,458.764 c 0.876,1.728 1.328,3.468 1.532,5.236 h 7.164 c -0.236,-3.132 -0.916,-6.196 -2.476,-9.264 -2.356,-4.644 -8.38,-0.224 -6.22,4.028 z"
           id="path1275" />
        <path
           style="fill:#99602e"
           d="m 304.108,431.764 c 3.872,-9.928 16.508,-15.732 24.916,-21.416 6.42,-4.34 12.332,-9 17.788,-14.496 4.612,-4.652 7.652,-10.06 9.68,-15.856 H 347.8 c -4.624,9.236 -12.232,16.384 -22.416,23.444 -6.756,4.688 -15.224,9.048 -21.292,15.18 -0.68,-13.236 -2,-25.416 -7.744,-38.144 -0.092,-0.208 -0.236,-0.308 -0.336,-0.48 h -5.244 c -0.944,1.172 -1.4,2.848 -0.64,4.52 6.54,14.496 6.576,29.536 7.252,45.232 0.168,3.368 5.16,6.04 6.728,2.016 z"
           id="path1277" />
        <path
           style="fill:#99602e"
           d="m 314.416,445.848 c 4.756,-11.676 16.9,-18.94 26.608,-26.224 13.74,-10.284 25.9,-22.744 29.5,-39.624 h -7.272 c -6.844,29.264 -43.532,35.616 -55.056,61.812 -1.656,3.764 -6.648,14.356 -6.996,22.188 h 7.168 c 0.952,-3.84 5.32,-16.368 6.048,-18.152 z"
           id="path1279" />
        <path
           style="fill:#99602e"
           d="m 315.86,398.764 c 1.688,-3.664 4.556,-6.58 6.252,-10.252 1.236,-2.676 1.68,-5.616 2.22,-8.52 h -7.336 c -0.38,1.948 -0.828,3.888 -1.66,5.696 -1.488,3.24 -4.184,5.768 -5.692,9.036 -1.988,4.32 4.04,8.764 6.216,4.04 z"
           id="path1281" />
        <path
           style="fill:#99602e"
           d="m 353.32,432.744 c 7.312,-8.22 17.704,-15.764 22.54,-25.724 2.084,-4.284 -3.944,-8.716 -6.22,-4.04 -3.508,7.228 -10.616,12.164 -15.984,17.964 -5.344,5.78 -10.476,11.732 -15.92,17.416 -7.432,7.764 -12.448,15.584 -14.584,25.632 h 7.344 c 3.424,-12.844 14.096,-21.456 22.824,-31.248 z"
           id="path1283" />
        <path
           style="fill:#99602e"
           d="m 476.164,386.608 c 1.3,-2.18 2.572,-4.384 3.8,-6.608 h -5.252 c 0.464,2.196 0.956,4.408 1.452,6.608 z"
           id="path1285" />
        <path
           style="fill:#99602e"
           d="m 413.82,437.156 c 5,-5.96 13.072,-9.752 19.752,-13.452 7.368,-4.084 17.232,-6.624 25,-11.256 3.548,-4.584 6.976,-9.268 10.216,-14.092 -1.232,-2.436 -4.568,-3.616 -6.14,-0.368 -4.228,8.72 -17.248,10.764 -25.432,14.856 -7.724,3.852 -15.352,8.24 -22.368,13.252 -14.896,10.656 -12.896,22.68 -12.312,37.912 h 2.62 c 1.388,-0.996 2.796,-1.948 4.16,-2.968 -0.812,-8.448 -1.624,-16.576 4.504,-23.884 z"
           id="path1287" />
        <path
           style="fill:#99602e"
           d="m 276.168,464 h 7.516 c 4.596,-15.648 9.74,-25.736 6.38,-43.22 -1.812,-9.456 -4.836,-19.016 -7.5,-28.268 -1.28,-4.448 -3.544,-8.44 -5.596,-12.512 h -8.648 c 3.46,10.428 8.908,20.556 11.716,31.316 3.152,12.06 6.92,23.204 2.116,35.712 -2.188,5.692 -4.292,11.132 -5.984,16.972 z"
           id="path1289" />
        <path
           style="fill:#99602e"
           d="m 271.608,439.02 c 4.824,-7.464 3.256,-18.112 1.608,-26.332 -1.024,-5.092 -7.912,-2.692 -6.936,2.124 1.244,6.2 2.756,14.532 -0.892,20.168 -2.608,4.036 3.416,8.372 6.22,4.04 z"
           id="path1291" />
        <path
           style="fill:#99602e"
           d="m 410.284,413.5 c -0.084,-10.672 0.756,-21.316 1.068,-32 0.016,-0.572 -0.084,-1.064 -0.236,-1.5 h -6.648 c -0.172,0.436 -0.304,0.928 -0.32,1.5 -0.392,13.764 -1.728,27.472 -0.752,41.252 0.2,2.772 3.888,5.968 6.148,2.828 10.272,-14.208 27.288,-14.052 41.14,-22.556 8.828,-5.416 11.772,-13.804 13.104,-23.024 h -7.156 c -0.716,4.648 -2.08,8.9 -5.596,12.892 -4.664,5.268 -12.212,7.532 -18.732,9.272 -8.068,2.156 -15.82,5.808 -22.02,11.336 z"
           id="path1293" />
        <path
           style="fill:#99602e"
           d="m 424.86,395.02 c 2.54,-4.384 4.508,-9.004 5.608,-13.956 0.084,-0.38 0.048,-0.716 0.04,-1.064 h -7.26 c -0.996,3.908 -2.572,7.468 -4.6,10.98 -2.412,4.152 3.608,8.528 6.212,4.04 z"
           id="path1295" />
        <path
           style="fill:#99602e"
           d="m 389.964,464 c 9.196,-26.608 9.916,-57.084 2.348,-84 h -8.828 c -0.084,0.376 -0.128,0.78 -0.084,1.252 1.752,18.648 -1.164,30.86 -10.624,46.936 -6.712,11.4 -16.604,23.692 -26.492,33.4 -1.244,-0.248 -2.556,0.228 -3.392,1.9 l -0.252,0.52 h 11.868 c 10.412,-10.896 19.78,-23.768 27.204,-36.388 4.176,-7.096 6.668,-13.384 8.084,-19.76 1.388,19.036 -1.056,38.64 -7.432,56.148 z"
           id="path1297" />
        <path
           style="fill:#99602e"
           d="m 257.524,380 h -7.204 c 1.636,23.744 5.7,47.208 0.444,70.564 -0.22,-0.44 -0.42,-0.88 -0.656,-1.328 -2.404,-4.608 -8.42,-0.208 -6.22,4.04 1.82,3.044 3.116,6.304 3.892,9.788 0.088,0.368 0.244,0.648 0.392,0.936 h 6.06 c 0.184,-0.288 0.364,-0.584 0.488,-0.936 9.828,-27.688 4.728,-54.936 2.804,-83.064 z"
           id="path1299" />
      </g>
      <path
         style="fill:#263740"
         d="m 62.928,424 c 46.932,53.892 115.996,88 193.072,88 77.08,0 146.136,-34.108 193.072,-88 z"
         id="path1303" />
      <path
         style="fill:#1e2c33"
         d="M 512,256 C 512,199.08 493.4,146.512 461.972,104 H 224 c -4.78,0 -8,3.36 -8,8.364 V 288 H 509.936 C 511.252,277.508 512,266.844 512,256 Z"
         id="path1305" />
      <path
         style="fill:#f5f5f5"
         d="M 509.936,288 H 216 v 32 c 0,4.78 3.22,8 8,8 h 277.664 c 3.784,-12.936 6.564,-26.3 8.272,-40 z"
         id="path1307" />
      <path
         style="fill:#586874"
         d="M 232,272 H 511.452 C 511.78,266.704 512,261.38 512,256 512,207.708 498.608,162.548 475.364,124 H 232 Z"
         id="path1309" />
      <rect
         x="344"
         y="328"
         style="fill:#e6e6e6"
         width="88"
         height="36"
         id="rect1311" />
      <path
         style="fill:#f5f5f5"
         d="m 460,372 c 0,-4.4 -3.6,-8 -8,-8 H 324 c -4.4,0 -8,3.6 -8,8 v 0 c 0,4.4 3.6,8 8,8 h 128 c 4.4,0 8,-3.6 8,-8 z"
         id="path1313" />
      <circle
         style="fill:#1e2c33"
         cx="388"
         cy="308"
         r="8"
         id="circle1315" />
      <g
         id="g1317" />
      <g
         id="g1319" />
      <g
         id="g1321" />
      <g
         id="g1323" />
      <g
         id="g1325" />
      <g
         id="g1327" />
      <g
         id="g1329" />
      <g
         id="g1331" />
      <g
         id="g1333" />
      <g
         id="g1335" />
      <g
         id="g1337" />
      <g
         id="g1339" />
      <g
         id="g1341" />
      <g
         id="g1343" />
      <g
         id="g1345" />
    </g>
    <g
       id="g1474"
       transform="matrix(1.3776506,0,0,1.3776506,114.17902,81.885431)">
      <path
         d="M 33.91,18.47 30.78,8.41 A 2,2 0 0 0 28.87,7 H 7.13 A 2,2 0 0 0 5.22,8.41 L 2.09,18.48 A 2,2 0 0 0 2,19.07 V 27 a 2,2 0 0 0 2,2 h 28 a 2,2 0 0 0 2,-2 V 19.06 A 2,2 0 0 0 33.91,18.47 Z M 8.92,25 h -1.8 v -3 h 1.8 z m 5,0 h -1.8 v -3 h 1.8 z m 5,0 h -1.8 v -3 h 1.8 z m 5,0 H 22.1 v -3 h 1.8 z m 5,0 H 27.1 v -3 h 1.8 z M 31,19.4 H 5 V 18 h 26 z"
         class="clr-i-solid clr-i-solid-path-1"
         id="path1462" />
      <rect
         x="0"
         y="0"
         width="36"
         height="36"
         fill-opacity="0"
         id="rect1464" />
    </g>
    <g
       id="g1722"
       transform="matrix(0.16628652,0,0,0.16628652,233.63535,23.563417)"
       style="stroke:#5cb0ff;stroke-opacity:1">
      <path
         d="m 258.919,213.897 c -14.464,-29.244 -33.785,-57.213 -53.916,-82.187 2.913,-11.34 5.439,-22.108 7.635,-32.194 9.816,-0.903 17.828,-8.067 20.032,-17.453 10.895,-1.455 22.007,-2.499 33.285,-3.043 8.992,18.47 14.045,39.197 14.045,61.082 0,27.065 -7.728,52.355 -21.081,73.795 z M 210.939,19.452 c -0.633,6.155 -2.052,18.339 -4.798,35.098 -9.919,1.95 -17.524,10.363 -18.274,20.655 -9.219,2.139 -18.202,4.503 -26.911,7.037 -3.934,-4.034 -7.78,-7.895 -11.496,-11.553 -7.995,-7.869 -15.755,-15.184 -23.078,-21.875 1.223,-2.789 1.911,-5.862 1.911,-9.098 0,-3.859 -0.972,-7.494 -2.676,-10.682 7.804,-10.228 16.523,-19.81 26.234,-28.424 21.422,1.804 41.484,8.451 59.088,18.842 z m -96.241,-0.549 c -2.806,-1.24 -5.9,-1.941 -9.159,-1.941 -4.359,0 -8.422,1.254 -11.886,3.388 C 89.738,17.117 86.292,14.332 83.429,12.055 98.019,5.583 113.911,1.538 130.595,0.426 124.933,6.302 119.648,12.49 114.698,18.903 Z m -9.159,43.568 c 3.874,0 7.521,-0.977 10.717,-2.692 8.968,8.21 18.636,17.402 28.609,27.422 -23.364,7.604 -44.398,16.191 -62.249,24.4 5.726,-16.266 12.822,-33.014 21.587,-49.198 0.444,0.026 0.884,0.068 1.336,0.068 z m -50.761,91.93 c -0.871,3.743 -1.685,7.433 -2.447,11.064 -2.936,-6.116 -5.543,-12.018 -7.866,-17.658 4.348,-2.461 8.962,-5.004 13.849,-7.601 -1.29,4.862 -2.468,9.609 -3.536,14.195 z m 4.736,58.493 c 0.8,-0.072 1.59,-0.182 2.365,-0.335 14.313,21.876 32.603,44.494 55.921,65.776 -22.839,-3.654 -43.853,-12.845 -61.611,-26.159 0.245,-6.375 1.009,-20.521 3.325,-39.282 z m 15.192,-7.851 c 3.423,-3.982 5.506,-9.147 5.506,-14.798 0,-9.268 -5.577,-17.245 -13.544,-20.789 0.817,-3.936 1.695,-7.939 2.643,-11.999 1.949,-8.351 4.272,-17.238 7.008,-26.434 1.108,-0.542 2.216,-1.084 3.344,-1.627 20.844,-10.032 47.032,-21.08 76.788,-30.307 10.762,11.277 21.683,23.408 32.285,36.206 -11.116,41.772 -27.46,90.688 -51.298,140.512 C 110.692,253.248 90.259,228.701 74.706,205.043 Z M 172.548,94.392 c 6.243,-1.712 12.62,-3.329 19.114,-4.83 1.727,2.562 3.972,4.739 6.569,6.417 -1.493,6.878 -3.145,14.085 -4.975,21.585 -6.954,-8.139 -13.909,-15.887 -20.708,-23.172 z m 85.31,-29.777 c -9.026,0.605 -17.938,1.51 -26.71,2.673 -2.151,-4.608 -5.792,-8.377 -10.311,-10.684 1.886,-11.533 3.159,-20.947 3.987,-27.8 12.978,9.916 24.182,22.038 33.034,35.811 z M 68.917,19.536 c 3.294,2.563 8.565,6.739 15.299,12.315 -0.909,2.455 -1.431,5.097 -1.431,7.864 0,6.745 2.966,12.796 7.644,16.967 C 79.089,77.87 70.499,99.856 64.002,120.551 54.94,125.098 46.603,129.56 39.051,133.794 26.591,99.226 23.172,72.203 22.384,64.247 34.205,45.982 50.162,30.637 68.917,19.536 Z M 10.667,86.521 C 13.283,100.37 17.91,119.406 26,141.329 15.364,147.654 6.942,153.126 1.038,157.124 0.357,151.543 0,145.864 0,140.102 0,121.132 3.8,103.035 10.667,86.521 Z m -6.712,86.646 c 4.912,-3.456 14.371,-9.878 27.566,-17.81 2.64,6.306 5.627,12.917 8.994,19.752 -3.6,4.026 -5.811,9.321 -5.811,15.136 0,7.937 4.091,14.927 10.268,19.001 -1.57,12.343 -2.484,22.82 -3.014,30.691 C 23.625,221.93 10.217,198.932 3.955,173.167 Z M 152.09,279.574 c 21.642,-45.704 37.12,-90.583 48.122,-129.988 19,24.447 36.295,50.906 48.87,78.165 -23.309,28.949 -57.876,48.461 -96.992,51.823 z"
         id="path1669"
         style="stroke:#5cb0ff;stroke-opacity:1" />
      <g
         id="g1671"
         style="stroke:#5cb0ff;stroke-opacity:1" />
      <g
         id="g1673"
         style="stroke:#5cb0ff;stroke-opacity:1" />
      <g
         id="g1675"
         style="stroke:#5cb0ff;stroke-opacity:1" />
      <g
         id="g1677"
         style="stroke:#5cb0ff;stroke-opacity:1" />
      <g
         id="g1679"
         style="stroke:#5cb0ff;stroke-opacity:1" />
      <g
         id="g1681"
         style="stroke:#5cb0ff;stroke-opacity:1" />
      <g
         id="g1683"
         style="stroke:#5cb0ff;stroke-opacity:1" />
      <g
         id="g1685"
         style="stroke:#5cb0ff;stroke-opacity:1" />
      <g
         id="g1687"
         style="stroke:#5cb0ff;stroke-opacity:1" />
      <g
         id="g1689"
         style="stroke:#5cb0ff;stroke-opacity:1" />
      <g
         id="g1691"
         style="stroke:#5cb0ff;stroke-opacity:1" />
      <g
         id="g1693"
         style="stroke:#5cb0ff;stroke-opacity:1" />
      <g
         id="g1695"
         style="stroke:#5cb0ff;stroke-opacity:1" />
      <g
         id="g1697"
         style="stroke:#5cb0ff;stroke-opacity:1" />
      <g
         id="g1699"
         style="stroke:#5cb0ff;stroke-opacity:1" />
    </g>
    <path
       style="fill:none;stroke:#00d40b;stroke-width:1.73852;stroke-linecap:butt;stroke-linejoin:miter;stroke-miterlimit:4;stroke-dasharray:none;stroke-opacity:0.917647"
       d="M 139.68962,89.994106 V 62.225355"
       id="path4734" />
    <path
       style="fill:none;stroke:#00d40b;stroke-width:1.95835;stroke-linecap:butt;stroke-linejoin:miter;stroke-miterlimit:4;stroke-dasharray:none;stroke-opacity:1"
       d="m 166.3026,51.189527 h 63.73722"
       id="path9718" />
    <text
       xml:space="preserve"
       style="font-weight:bold;font-size:7.05556px;line-height:1.25;font-family:'Droid Sans';-inkscape-font-specification:'Droid Sans Bold';letter-spacing:0px;word-spacing:0px;stroke-width:0.264583"
       x="51.646889"
       y="126.34058"
       id="text22775"><tspan
         sodipodi:role="line"
         id="tspan22773"
         style="font-style:normal;font-variant:normal;font-weight:bold;font-stretch:normal;font-size:7.05556px;font-family:FreeMono;-inkscape-font-specification:'FreeMono Bold';stroke-width:0.264583"
         x="51.646889"
         y="126.34058">Mirrored Port</tspan></text>
    <text
       xml:space="preserve"
       style="font-weight:bold;font-size:7.05556px;line-height:1.25;font-family:'Droid Sans';-inkscape-font-specification:'Droid Sans Bold';letter-spacing:0px;word-spacing:0px;stroke-width:0.264583"
       x="174.0368"
       y="126.34058"
       id="text22775-6"><tspan
         sodipodi:role="line"
         id="tspan22773-7"
         style="font-style:normal;font-variant:normal;font-weight:bold;font-stretch:normal;font-size:7.05556px;font-family:FreeMono;-inkscape-font-specification:'FreeMono Bold';stroke-width:0.264583"
         x="174.0368"
         y="126.34058">Monitor Port</tspan></text>
    <g
       id="g34060"
       transform="matrix(0.11401313,0,0,0.11401313,116.60839,15.708314)">
      <path
         style="fill:#ffc10d"
         d="m 32.711,272.113 c -6.012,0 -10.925,4.848 -10.925,10.925 v 59.345 c 0,6.012 4.848,10.925 10.925,10.925 h 327.111 c 6.012,0 10.925,-4.848 10.925,-10.925 v -59.345 c 0,-6.012 -4.848,-10.925 -10.925,-10.925"
         id="path33983" />
      <g
         id="g33999">
	<path
   style="fill:#194f82"
   d="M 359.822,250.327 H 91.733 V 90.392 c 0,-6.012 -4.848,-10.925 -10.925,-10.925 -6.077,0 -10.925,4.848 -10.925,10.925 V 250.263 H 32.711 C 14.675,250.263 0,264.937 0,282.974 v 59.345 c 0,18.036 14.675,32.711 32.711,32.711 h 10.99 v 6.594 c 0,6.012 4.848,10.925 10.925,10.925 6.077,0 10.925,-4.848 10.925,-10.925 v -6.594 h 261.43 v 6.594 c 0,6.012 4.849,10.925 10.925,10.925 6.076,0 10.925,-4.848 10.925,-10.925 v -6.594 h 11.055 c 18.036,0 32.711,-14.675 32.711,-32.711 v -59.345 c -0.064,-17.972 -14.738,-32.647 -32.775,-32.647 z m 10.925,91.992 c 0,6.012 -4.848,10.925 -10.925,10.925 H 32.711 c -6.012,0 -10.925,-4.848 -10.925,-10.925 v -59.345 c 0,-6.012 4.848,-10.925 10.925,-10.925 h 58.44 v 23.337 c 0,6.012 4.848,10.925 10.925,10.925 6.077,0 10.925,-4.848 10.925,-10.925 v -23.337 h 21.786 v 45.123 c 0,6.012 4.848,10.925 10.925,10.925 6.077,0 10.925,-4.848 10.925,-10.925 V 272.049 H 359.95 c 6.012,0 10.925,4.849 10.925,10.925 v 59.345 z"
   id="path33985" />

	<path
   style="fill:#194f82"
   d="m 170.537,162.15 c -4.267,4.267 -4.267,11.119 0,15.451 4.267,4.267 11.119,4.267 15.451,0 52.752,-54.95 43.248,-131.749 0,-174.352 -4.267,-4.267 -11.119,-4.267 -15.451,0 -4.331,4.267 -4.267,11.119 0,15.451 39.564,39.498 39.564,103.886 0,143.45 z"
   id="path33987" />

	<path
   style="fill:#194f82"
   d="m 141.382,132.994 c -4.267,4.267 -4.267,11.119 0,15.451 4.267,4.267 11.119,4.267 15.451,0 34.457,-36.137 29.737,-86.238 0,-116.04 -4.267,-4.267 -11.119,-4.267 -15.451,0 -4.267,4.267 -4.267,11.119 0,15.451 23.531,23.401 23.531,61.671 0,85.138 z"
   id="path33989" />

	<path
   style="fill:#194f82"
   d="m 112.291,119.224 c 4.267,4.267 11.119,4.267 15.451,0 16.873,-17.907 15.127,-42.085 0,-57.794 -4.267,-4.267 -11.119,-4.267 -15.451,0 -4.267,4.267 -4.267,11.119 0,15.451 7.434,7.434 7.434,19.523 0,26.958 -4.267,4.266 -4.267,11.183 0,15.385 z"
   id="path33991" />

	<path
   style="fill:#194f82"
   d="m 203.701,301.786 h -14.804 c -6.012,0 -10.925,4.848 -10.925,10.925 0,6.012 4.848,10.925 10.925,10.925 h 14.804 c 6.012,0 10.925,-4.848 10.925,-10.925 -0.064,-6.077 -4.913,-10.925 -10.925,-10.925 z"
   id="path33993" />

	<path
   style="fill:#194f82"
   d="m 266.925,301.786 h -14.869 c -6.012,0 -10.925,4.848 -10.925,10.925 0,6.012 4.848,10.925 10.925,10.925 h 14.869 c 6.012,0 10.925,-4.848 10.925,-10.925 -0.064,-6.077 -4.913,-10.925 -10.925,-10.925 z"
   id="path33995" />

	<path
   style="fill:#194f82"
   d="M 330.149,301.786 H 315.28 c -6.012,0 -10.925,4.848 -10.925,10.925 0,6.012 4.849,10.925 10.925,10.925 h 14.869 c 6.012,0 10.925,-4.848 10.925,-10.925 0,-6.077 -4.912,-10.925 -10.925,-10.925 z"
   id="path33997" />

</g>
      <g
         id="g34001">
</g>
      <g
         id="g34003">
</g>
      <g
         id="g34005">
</g>
      <g
         id="g34007">
</g>
      <g
         id="g34009">
</g>
      <g
         id="g34011">
</g>
      <g
         id="g34013">
</g>
      <g
         id="g34015">
</g>
      <g
         id="g34017">
</g>
      <g
         id="g34019">
</g>
      <g
         id="g34021">
</g>
      <g
         id="g34023">
</g>
      <g
         id="g34025">
</g>
      <g
         id="g34027">
</g>
      <g
         id="g34029">
</g>
    </g>
    <path
       style="fill:none;stroke:#ffc10d;stroke-width:2;stroke-linecap:butt;stroke-linejoin:miter;stroke-miterlimit:4;stroke-dasharray:none;stroke-opacity:1"
       d="m 152.43316,115.26835 h 102.74593 v 21.44217"
       id="path34389" />
    <path
       style="fill:none;stroke:#88c5cc;stroke-width:2;stroke-linecap:butt;stroke-linejoin:miter;stroke-miterlimit:4;stroke-dasharray:none;stroke-opacity:1"
       d="M 125.93849,114.73918 H 38.360407 v 11.63727"
       id="path38316" />
  </g>
</svg>
