<?xml version="1.0" encoding="UTF-8" standalone="no"?>
<!-- Created with Inkscape (http://www.inkscape.org/) -->

<svg
   width="139.10684mm"
   height="31.260376mm"
   viewBox="0 0 139.10684 31.260376"
   version="1.1"
   id="svg950"
   inkscape:version="1.1.1 (3bf5ae0d25, 2021-09-20)"
   sodipodi:docname="mtu-difference.svg"
   xmlns:inkscape="http://www.inkscape.org/namespaces/inkscape"
   xmlns:sodipodi="http://sodipodi.sourceforge.net/DTD/sodipodi-0.dtd"
   xmlns="http://www.w3.org/2000/svg"
   xmlns:svg="http://www.w3.org/2000/svg">
  <sodipodi:namedview
     id="namedview952"
     pagecolor="#ffffff"
     bordercolor="#666666"
     borderopacity="1.0"
     inkscape:pageshadow="2"
     inkscape:pageopacity="0.0"
     inkscape:pagecheckerboard="0"
     inkscape:document-units="mm"
     showgrid="false"
     inkscape:zoom="0.81454783"
     inkscape:cx="220.36766"
     inkscape:cy="112.9461"
     inkscape:window-width="1366"
     inkscape:window-height="715"
     inkscape:window-x="0"
     inkscape:window-y="0"
     inkscape:window-maximized="1"
     inkscape:current-layer="layer1" />
  <defs
     id="defs947" />
  <g
     inkscape:label="Layer 1"
     inkscape:groupmode="layer"
     id="layer1"
     transform="translate(-5.8449395,-36.869812)">
    <g
       id="g1247"
       transform="matrix(0.09966268,0,0,0.09966268,5.8449395,41.736431)">
      <g
         id="g1219">
	<path
   fill="#5cb0ff"
   d="M 175.9961,156 C 184.8203,156 192,148.8242 192,140.0039 V 23.9961 C 192,15.1758 184.8203,8 175.9961,8 H 24.0039 C 15.1797,8 8,15.1758 8,23.9961 V 140.0039 C 8,148.8242 15.1797,156 24.0039,156 H 80 124 Z M 68.8281,32.8281 34.7695,66.8867 c -0.7812,0.7812 -1.8047,1.1719 -2.8281,1.1719 -1.0234,0 -2.0469,-0.3906 -2.8281,-1.1719 -1.5625,-1.5625 -1.5625,-4.0938 0,-5.6562 L 63.1719,27.1719 c 1.5625,-1.5625 4.0938,-1.5625 5.6562,0 1.5624,1.5625 1.5625,4.0937 0,5.6562 z"
   id="path1203" />

	<rect
   x="112"
   y="192"
   fill="#d0e8ff"
   width="60"
   height="4"
   id="rect1205" />

	<path
   fill="#d0e8ff"
   d="m 8,180 v 14 c 0,7.7188 6.2695,14 13.9766,14 h 156.0469 c 7.707,0 13.9766,-6.2812 13.9766,-14 v -14 h -68 H 80 Z m 20,18 c 0,2.209 -1.791,4 -4,4 -2.209,0 -4,-1.791 -4,-4 v -8 c 0,-2.209 1.791,-4 4,-4 2.209,0 4,1.791 4,4 z m 76,-14 h 76 v 20 h -76 z"
   id="path1207" />

	<rect
   x="88"
   y="164"
   fill="#d0e8ff"
   width="28"
   height="8"
   id="rect1209" />

	<path
   fill="#1c71da"
   d="M 175.9961,164 C 189.2324,164 200,153.2363 200,140.0039 V 23.9961 C 200,10.7637 189.2324,0 175.9961,0 H 24.0039 C 10.7676,0 0,10.7637 0,23.9961 V 140.0039 C 0,153.2363 10.7676,164 24.0039,164 H 80 v 8 H 0 v 22 c 0,12.1309 9.8594,22 21.9766,22 H 178.0235 C 190.1406,216 200,206.1309 200,194 v -22 h -76 v -8 z M 24.0039,156 C 15.1797,156 8,148.8242 8,140.0039 V 23.9961 C 8,15.1758 15.1797,8 24.0039,8 H 175.9961 C 184.8203,8 192,15.1758 192,23.9961 V 140.0039 C 192,148.8242 184.8203,156 175.9961,156 H 124 80 Z M 192,180 v 14 c 0,7.7188 -6.2695,14 -13.9766,14 H 21.9766 C 14.2695,208 8,201.7188 8,194 v -14 h 72 44 z m -76,-8 H 88 v -8 h 28 z"
   id="path1211" />

	<path
   fill="#1c71da"
   d="m 180,184 h -76 v 20 h 76 z m -8,12 h -60 v -4 h 60 z"
   id="path1213" />

	<path
   fill="#1c71da"
   d="m 24,186 c -2.209,0 -4,1.791 -4,4 v 8 c 0,2.209 1.791,4 4,4 2.209,0 4,-1.791 4,-4 v -8 c 0,-2.209 -1.791,-4 -4,-4 z"
   id="path1215" />

	<path
   fill="#ffffff"
   d="M 63.1719,27.1719 29.1133,61.2305 c -1.5625,1.5625 -1.5625,4.0938 0,5.6562 0.7812,0.7812 1.8047,1.1719 2.8281,1.1719 1.0234,0 2.0469,-0.3906 2.8281,-1.1719 L 68.8281,32.8281 c 1.5625,-1.5625 1.5625,-4.0938 0,-5.6562 -1.5625,-1.5624 -4.0937,-1.5625 -5.6562,0 z"
   id="path1217" />

</g>
      <path
         fill="#ff5d5d"
         d="m 32.2524,143.8237 c -1.0239,0 -2.0474,-0.3906 -2.8286,-1.1714 -1.562,-1.5625 -1.562,-4.0947 0,-5.6572 L 43.5659,122.853 c 1.5625,-1.5615 4.0947,-1.5615 5.6572,0 1.562,1.5625 1.562,4.0947 0,5.6572 L 35.081,142.6523 c -0.7812,0.7808 -1.8046,1.1714 -2.8286,1.1714 z"
         id="path1221" />
      <path
         fill="#ff5d5d"
         d="m 46.3945,143.8223 c -1.0239,0 -2.0474,-0.3906 -2.8286,-1.1714 L 29.4238,128.5083 c -1.562,-1.5625 -1.562,-4.0952 0,-5.6572 1.563,-1.5615 4.0952,-1.5605 5.6572,0 l 14.1421,14.1426 c 1.562,1.5625 1.562,4.0952 0,5.6572 -0.7812,0.7807 -1.8051,1.1714 -2.8286,1.1714 z"
         id="path1223" />
      <path
         fill="#00d40b"
         d="m 102.2524,79.8237 c -7.7197,0 -14,-6.2803 -14,-14 0,-7.7197 6.2803,-14 14,-14 7.7197,0 14,6.2803 14,14 0,7.7197 -6.2802,14 -14,14 z m 0,-20 c -3.3086,0 -6,2.6914 -6,6 0,3.3086 2.6914,6 6,6 3.3086,0 6,-2.6914 6,-6 0,-3.3086 -2.6914,-6 -6,-6 z"
         id="path1225" />
      <path
         fill="#ffc504"
         d="m 171.5659,102.4492 c -1.0239,0 -2.0474,-0.3906 -2.8286,-1.1714 L 157.4238,89.9643 c -1.562,-1.5625 -1.562,-4.0947 0,-5.6572 l 11.3135,-11.3135 c 1.5625,-1.5615 4.0952,-1.5615 5.6567,0 l 11.314,11.3135 c 0.7505,0.7505 1.1719,1.7676 1.1719,2.8286 0,1.061 -0.4214,2.0781 -1.1719,2.8286 l -11.314,11.3135 c -0.7807,0.7808 -1.8046,1.1714 -2.8281,1.1714 z m -5.6567,-15.3135 5.6567,5.6567 5.6572,-5.6567 -5.6572,-5.6567 z"
         id="path1227" />
    </g>
    <g
       id="g1930"
       transform="matrix(0.42908158,0,0,0.42908158,115.42095,39.211118)">
      <path
         style="fill:#38454f"
         d="M 54.974,43.555 H 3.026 C 1.355,43.555 0,42.2 0,40.529 V 34.58 c 0,-1.671 1.355,-3.026 3.026,-3.026 h 51.949 c 1.671,0 3.026,1.355 3.026,3.026 v 5.949 C 58,42.2 56.645,43.555 54.974,43.555 Z"
         id="path1754" />
      <path
         style="fill:#283238"
         d="M 55,31.555 H 3 l 4.545,-3.636 c 0.294,-0.235 0.66,-0.364 1.037,-0.364 h 40.835 c 0.377,0 0.743,0.128 1.037,0.364 z"
         id="path1756" />
      <path
         style="fill:#283238"
         d="m 3,43.555 h 52 l -4.545,3.636 c -0.294,0.235 -0.66,0.364 -1.037,0.364 H 8.582 c -0.377,0 -0.743,-0.128 -1.037,-0.364 z"
         id="path1758" />
      <g
         id="g1772">
	<path
   style="fill:#546a79"
   d="M 8,34.555 H 5 c -0.552,0 -1,0.447 -1,1 0,0.553 0.448,1 1,1 h 3 c 0.552,0 1,-0.447 1,-1 0,-0.553 -0.448,-1 -1,-1 z"
   id="path1760" />

	<path
   style="fill:#546a79"
   d="M 8,38.555 H 5 c -0.552,0 -1,0.447 -1,1 0,0.553 0.448,1 1,1 h 3 c 0.552,0 1,-0.447 1,-1 0,-0.553 -0.448,-1 -1,-1 z"
   id="path1762" />

	<path
   style="fill:#546a79"
   d="m 15,34.555 h -3 c -0.552,0 -1,0.447 -1,1 0,0.553 0.448,1 1,1 h 3 c 0.552,0 1,-0.447 1,-1 0,-0.553 -0.448,-1 -1,-1 z"
   id="path1764" />

	<path
   style="fill:#546a79"
   d="m 15,38.555 h -3 c -0.552,0 -1,0.447 -1,1 0,0.553 0.448,1 1,1 h 3 c 0.552,0 1,-0.447 1,-1 0,-0.553 -0.448,-1 -1,-1 z"
   id="path1766" />

	<path
   style="fill:#546a79"
   d="m 19,36.555 h 3 c 0.552,0 1,-0.447 1,-1 0,-0.553 -0.448,-1 -1,-1 h -3 c -0.552,0 -1,0.447 -1,1 0,0.553 0.448,1 1,1 z"
   id="path1768" />

	<path
   style="fill:#546a79"
   d="m 22,38.555 h -3 c -0.552,0 -1,0.447 -1,1 0,0.553 0.448,1 1,1 h 3 c 0.552,0 1,-0.447 1,-1 0,-0.553 -0.448,-1 -1,-1 z"
   id="path1770" />

</g>
      <path
         style="fill:#38454f"
         d="M 54.974,23.555 H 3.026 C 1.355,23.555 0,22.2 0,20.529 V 14.58 c 0,-1.671 1.355,-3.026 3.026,-3.026 h 51.949 c 1.671,0 3.026,1.355 3.026,3.026 v 5.949 C 58,22.2 56.645,23.555 54.974,23.555 Z"
         id="path1774" />
      <path
         style="fill:#283238"
         d="M 55,11.555 H 3 L 7.545,7.919 C 7.839,7.684 8.205,7.555 8.582,7.555 h 40.835 c 0.377,0 0.743,0.128 1.037,0.364 z"
         id="path1776" />
      <path
         style="fill:#1a2530"
         d="m 3,23.555 h 52 l -4.545,3.636 c -0.294,0.235 -0.66,0.364 -1.037,0.364 H 8.582 c -0.377,0 -0.743,-0.128 -1.037,-0.364 z"
         id="path1778" />
      <path
         style="fill:#546a79"
         d="M 8,16.555 H 5 c -0.552,0 -1,-0.447 -1,-1 0,-0.553 0.448,-1 1,-1 h 3 c 0.552,0 1,0.447 1,1 0,0.553 -0.448,1 -1,1 z"
         id="path1780" />
      <path
         style="fill:#546a79"
         d="M 8,20.555 H 5 c -0.552,0 -1,-0.447 -1,-1 0,-0.553 0.448,-1 1,-1 h 3 c 0.552,0 1,0.447 1,1 0,0.553 -0.448,1 -1,1 z"
         id="path1782" />
      <path
         style="fill:#546a79"
         d="m 15,16.555 h -3 c -0.552,0 -1,-0.447 -1,-1 0,-0.553 0.448,-1 1,-1 h 3 c 0.552,0 1,0.447 1,1 0,0.553 -0.448,1 -1,1 z"
         id="path1784" />
      <path
         style="fill:#546a79"
         d="m 15,20.555 h -3 c -0.552,0 -1,-0.447 -1,-1 0,-0.553 0.448,-1 1,-1 h 3 c 0.552,0 1,0.447 1,1 0,0.553 -0.448,1 -1,1 z"
         id="path1786" />
      <path
         style="fill:#546a79"
         d="m 22,16.555 h -3 c -0.552,0 -1,-0.447 -1,-1 0,-0.553 0.448,-1 1,-1 h 3 c 0.552,0 1,0.447 1,1 0,0.553 -0.448,1 -1,1 z"
         id="path1788" />
      <path
         style="fill:#546a79"
         d="m 22,20.555 h -3 c -0.552,0 -1,-0.447 -1,-1 0,-0.553 0.448,-1 1,-1 h 3 c 0.552,0 1,0.447 1,1 0,0.553 -0.448,1 -1,1 z"
         id="path1790" />
      <g
         id="g1824">
	<circle
   style="fill:#546a79"
   cx="30"
   cy="34.555"
   r="1"
   id="circle1792" />

	<circle
   style="fill:#546a79"
   cx="30"
   cy="40.555"
   r="1"
   id="circle1794" />

	<circle
   style="fill:#546a79"
   cx="32"
   cy="37.555"
   r="1"
   id="circle1796" />

	<circle
   style="fill:#546a79"
   cx="34"
   cy="34.555"
   r="1"
   id="circle1798" />

	<circle
   style="fill:#546a79"
   cx="34"
   cy="40.555"
   r="1"
   id="circle1800" />

	<circle
   style="fill:#546a79"
   cx="36"
   cy="37.555"
   r="1"
   id="circle1802" />

	<circle
   style="fill:#546a79"
   cx="38"
   cy="34.555"
   r="1"
   id="circle1804" />

	<circle
   style="fill:#546a79"
   cx="38"
   cy="40.555"
   r="1"
   id="circle1806" />

	<circle
   style="fill:#546a79"
   cx="30"
   cy="14.555"
   r="1"
   id="circle1808" />

	<circle
   style="fill:#546a79"
   cx="30"
   cy="20.555"
   r="1"
   id="circle1810" />

	<circle
   style="fill:#546a79"
   cx="32"
   cy="17.555"
   r="1"
   id="circle1812" />

	<circle
   style="fill:#546a79"
   cx="34"
   cy="14.555"
   r="1"
   id="circle1814" />

	<circle
   style="fill:#546a79"
   cx="34"
   cy="20.555"
   r="1"
   id="circle1816" />

	<circle
   style="fill:#546a79"
   cx="36"
   cy="17.555"
   r="1"
   id="circle1818" />

	<circle
   style="fill:#546a79"
   cx="38"
   cy="14.555"
   r="1"
   id="circle1820" />

	<circle
   style="fill:#546a79"
   cx="38"
   cy="20.555"
   r="1"
   id="circle1822" />

</g>
      <path
         style="fill:#28384c"
         d="M 16.11,50.445 H 9.89 C 9.399,50.445 9,50.047 9,49.555 v -2 h 8 v 2 c 0,0.492 -0.398,0.89 -0.89,0.89 z"
         id="path1826" />
      <path
         style="fill:#28384c"
         d="m 48.11,50.445 h -6.22 c -0.491,0 -0.89,-0.398 -0.89,-0.89 v -2 h 8 v 2 c 0,0.492 -0.398,0.89 -0.89,0.89 z"
         id="path1828" />
      <circle
         style="fill:#283238"
         cx="51"
         cy="17.555"
         r="3"
         id="circle1830" />
      <circle
         style="fill:#81ea1c"
         cx="51"
         cy="17.555"
         r="2"
         id="circle1832" />
      <circle
         style="fill:#283238"
         cx="51"
         cy="37.555"
         r="3"
         id="circle1834" />
      <circle
         style="fill:#81ea1c"
         cx="51"
         cy="37.555"
         r="2"
         id="circle1836" />
      <g
         id="g1838">
</g>
      <g
         id="g1840">
</g>
      <g
         id="g1842">
</g>
      <g
         id="g1844">
</g>
      <g
         id="g1846">
</g>
      <g
         id="g1848">
</g>
      <g
         id="g1850">
</g>
      <g
         id="g1852">
</g>
      <g
         id="g1854">
</g>
      <g
         id="g1856">
</g>
      <g
         id="g1858">
</g>
      <g
         id="g1860">
</g>
      <g
         id="g1862">
</g>
      <g
         id="g1864">
</g>
      <g
         id="g1866">
</g>
    </g>
    <path
       style="fill:#5cb0ff;fill-opacity:1;stroke:#ff9e0e;stroke-width:3.18344;stroke-linecap:butt;stroke-linejoin:miter;stroke-miterlimit:4;stroke-dasharray:none;stroke-opacity:1"
       d="m 58.794291,51.751035 -32.334479,0.25776 v 0"
       id="path2069" />
    <path
       style="fill:#5cb0ff;fill-opacity:1;stroke:#e50eff;stroke-width:2.4731;stroke-linecap:butt;stroke-linejoin:miter;stroke-miterlimit:4;stroke-dasharray:none;stroke-opacity:1"
       d="M 112.47676,51.397603 83.406182,51.57063 v 0"
       id="path2069-3" />
    <text
       xml:space="preserve"
       style="font-weight:bold;font-size:4.58761px;line-height:1.25;font-family:'Droid Sans';-inkscape-font-specification:'Droid Sans Bold';letter-spacing:0px;word-spacing:0px;stroke-width:0.245764"
       x="31.183216"
       y="45.29649"
       id="text8208"
       transform="scale(0.92887426,1.076572)"><tspan
         sodipodi:role="line"
         id="tspan8206"
         style="font-style:normal;font-variant:normal;font-weight:bold;font-stretch:normal;font-size:4.58761px;font-family:FreeMono;-inkscape-font-specification:'FreeMono Bold';stroke-width:0.245764"
         x="31.183216"
         y="45.29649">MTU = 1500</tspan></text>
    <text
       xml:space="preserve"
       style="font-weight:bold;font-size:4.43467px;line-height:1.25;font-family:'Droid Sans';-inkscape-font-specification:'Droid Sans Bold';letter-spacing:0px;word-spacing:0px;stroke-width:0.237571"
       x="96.641983"
       y="43.714386"
       id="text8208-6"
       transform="scale(0.89790796,1.1136999)"><tspan
         sodipodi:role="line"
         id="tspan8206-7"
         style="font-style:normal;font-variant:normal;font-weight:bold;font-stretch:normal;font-size:4.43467px;font-family:FreeMono;-inkscape-font-specification:'FreeMono Bold';stroke-width:0.237571"
         x="96.641983"
         y="43.714386">MTU = 1400</tspan></text>
    <g
       id="g36351"
       transform="matrix(0.05003043,0,0,0.05003043,58.180834,39.433543)">
      <g
         id="g36295">
	<g
   id="g36293">
		<path
   d="m 77.8,130.7 h 334.4 c 16.7,0 29.9,-13.6 29.9,-29.9 V 42 C 442.5,25.3 428.9,11.7 412.2,11.7 H 77.8 c -16.7,0 -29.9,13.6 -29.9,29.9 v 59.1 c -0.1,16.7 13.5,30 29.9,30 z M 378.4,45.9 c 14,0 25.3,11.3 25.3,25.3 0,14 -11.3,25.3 -25.3,25.3 -14,0 -25.3,-11.3 -25.3,-25.3 0,-14 11.3,-25.3 25.3,-25.3 z M 86.3,51.3 H 215 V 91.4 H 86.3 Z"
   id="path36289" />

		<path
   d="M 480.7,417.3 H 297.1 c -0.1,0 -0.3,0 -0.4,0 v -42.8 h -42.4 c 0,-0.1 0,-0.3 0,-0.4 v -88.7 h 157.9 c 16.7,0 29.9,-13.6 29.9,-29.9 v -59.1 c 0.4,-16.3 -13.2,-29.9 -29.9,-29.9 H 77.8 c -16.7,0 -29.9,13.6 -29.9,29.9 v 59.1 c 0,16.7 13.6,29.9 29.9,29.9 h 157.9 v 89.1 h -42.8 v 42.8 H 9.3 c -5.1,0 -9.3,4.3 -9.3,9.3 0,5 4.3,9.3 9.3,9.3 h 183.6 v 42.4 h 103.8 v -42.4 c 0.1,0 0.3,0 0.4,0 h 183.6 c 5.1,0 9.3,-4.3 9.3,-9.3 0,-5 -4.3,-9.3 -9.3,-9.3 z M 378.4,200.7 c 14,0 25.3,11.3 25.3,25.3 0,14 -11.3,25.3 -25.3,25.3 -14,0 -25.3,-11.3 -25.3,-25.3 0,-14 11.3,-25.3 25.3,-25.3 z M 215.1,246.2 H 86.3 V 206.1 H 215 v 40.1 z"
   id="path36291" />

	</g>

</g>
      <g
         id="g36297">
</g>
      <g
         id="g36299">
</g>
      <g
         id="g36301">
</g>
      <g
         id="g36303">
</g>
      <g
         id="g36305">
</g>
      <g
         id="g36307">
</g>
      <g
         id="g36309">
</g>
      <g
         id="g36311">
</g>
      <g
         id="g36313">
</g>
      <g
         id="g36315">
</g>
      <g
         id="g36317">
</g>
      <g
         id="g36319">
</g>
      <g
         id="g36321">
</g>
      <g
         id="g36323">
</g>
      <g
         id="g36325">
</g>
    </g>
  </g>
</svg>
